<svg width="2168" height="2168" viewBox="0 0 2168 2168" fill="none" xmlns="http://www.w3.org/2000/svg">
<g clip-path="url(#clip0_15_61)">
<mask id="mask0_15_61" style="mask-type:luminance" maskUnits="userSpaceOnUse" x="0" y="0" width="2168" height="2168">
<path d="M1768 0H400C179.086 0 0 179.086 0 400V1768C0 1988.91 179.086 2168 400 2168H1768C1988.91 2168 2168 1988.91 2168 1768V400C2168 179.086 1988.91 0 1768 0Z" fill="white"/>
</mask>
<g mask="url(#mask0_15_61)">
<path d="M1768 0H400C179.086 0 0 179.086 0 400V1768C0 1988.91 179.086 2168 400 2168H1768C1988.91 2168 2168 1988.91 2168 1768V400C2168 179.086 1988.91 0 1768 0Z" fill="#A5B6F5"/>
<g filter="url(#filter0_f_15_61)">
<path d="M1637.26 -104.644C1670.95 -515.699 1165.42 -892.594 508.126 -946.463C-149.165 -1000.33 -709.314 -710.774 -743.002 -299.72C-776.69 111.335 -271.161 488.23 386.13 542.099C1043.42 595.967 1603.57 306.41 1637.26 -104.644Z" fill="#145BFF"/>
</g>
<g filter="url(#filter1_f_15_61)">
<path d="M1694.42 1863.31C1801.2 1464.93 1371.36 1003.58 734.345 832.845C97.3347 662.11 -505.622 846.646 -612.396 1245.02C-719.17 1643.39 -289.329 2104.74 347.682 2275.48C984.692 2446.21 1587.65 2261.68 1694.42 1863.31Z" fill="#C7EAFE"/>
</g>
<rect x="910.437" y="628.937" width="346.125" height="346.125" rx="173.063" fill="white" stroke="white" stroke-width="153.875"/>
<mask id="path-6-inside-1_15_61" fill="white">
<path d="M570.5 1569.58C570.5 1312.05 779.264 1103.29 1036.79 1103.29H1129.21C1386.74 1103.29 1595.5 1312.05 1595.5 1569.58V1569.58C1595.5 1595.33 1574.62 1616.21 1548.87 1616.21H617.129C591.376 1616.21 570.5 1595.33 570.5 1569.58V1569.58Z"/>
</mask>
<path d="M570.5 1569.58C570.5 1312.05 779.264 1103.29 1036.79 1103.29H1129.21C1386.74 1103.29 1595.5 1312.05 1595.5 1569.58V1569.58C1595.5 1595.33 1574.62 1616.21 1548.87 1616.21H617.129C591.376 1616.21 570.5 1595.33 570.5 1569.58V1569.58Z" fill="white" stroke="white" stroke-width="307.75" mask="url(#path-6-inside-1_15_61)"/>
<g filter="url(#filter2_f_15_61)">
<path d="M3506.83 2485.38C3750.99 1910.42 3531.15 1266.91 3015.8 1048.06C2500.45 829.218 1884.75 1117.91 1640.59 1692.87C1396.43 2267.83 1616.27 2911.34 2131.61 3130.18C2646.96 3349.03 3262.67 3060.34 3506.83 2485.38Z" fill="#FE99CE"/>
</g>
</g>
<rect x="111" y="109" width="598" height="598" rx="299" fill="white"/>
<g clip-path="url(#clip1_15_61)">
<path d="M529.212 440.822C546.042 431.045 578.3 432.442 578.3 403.112C578.3 373.781 546.042 376.575 527.81 368.195C522.2 365.401 517.992 362.608 517.992 361.211C516.59 358.418 517.992 354.228 519.395 347.244C525.005 327.691 548.847 306.741 527.81 287.187C506.772 267.634 485.735 291.377 467.502 296.964C461.892 298.361 456.283 299.757 454.88 298.361C452.075 296.964 449.27 292.774 446.465 287.187C435.245 270.427 435.245 239.7 407.195 239.7C377.743 239.7 380.548 271.824 372.133 289.98C367.925 295.567 365.12 299.757 363.717 299.757C360.912 301.154 356.705 299.757 349.692 298.361C330.058 294.17 309.02 270.427 287.983 291.377C268.348 312.327 292.19 333.278 299.203 351.434C300.605 357.021 302.008 362.608 300.605 365.401C299.203 368.195 294.995 370.988 289.385 373.781C272.555 382.161 241.7 382.161 241.7 410.095C241.7 439.425 273.958 436.632 292.19 445.012C297.8 449.202 302.008 451.995 302.008 453.392C303.41 456.185 302.008 460.375 300.605 467.359C294.995 486.912 271.153 507.863 292.19 527.416C313.228 546.97 334.265 523.226 352.497 517.639C358.107 516.243 363.718 514.846 365.12 516.243C367.925 517.639 370.73 521.829 373.535 527.416C383.352 544.176 381.95 576.3 411.403 576.3C440.855 576.3 438.05 544.176 446.465 526.019C449.27 520.433 452.075 516.243 454.88 514.846C457.685 513.449 461.893 514.846 468.905 516.243C488.54 521.829 509.577 545.573 529.212 524.623C548.847 503.673 525.005 482.722 519.395 464.565C517.992 458.979 516.59 453.392 517.992 450.599C520.797 447.805 523.602 445.012 529.212 440.822Z" stroke="black" stroke-width="37.4" stroke-miterlimit="10" stroke-linejoin="round"/>
<path d="M410 445.4C430.655 445.4 447.4 428.656 447.4 408C447.4 387.345 430.655 370.6 410 370.6C389.345 370.6 372.6 387.345 372.6 408C372.6 428.656 389.345 445.4 410 445.4Z" stroke="black" stroke-width="37.4" stroke-miterlimit="10"/>
</g>
</g>
<defs>
<filter id="filter0_f_15_61" x="-1544.59" y="-1752.91" width="3983.44" height="3101.46" filterUnits="userSpaceOnUse" color-interpolation-filters="sRGB">
<feFlood flood-opacity="0" result="BackgroundImageFix"/>
<feBlend mode="normal" in="SourceGraphic" in2="BackgroundImageFix" result="shape"/>
<feGaussianBlur stdDeviation="400" result="effect1_foregroundBlur_15_61"/>
</filter>
<filter id="filter1_f_15_61" x="-1428.67" y="-30.812" width="3939.37" height="3169.95" filterUnits="userSpaceOnUse" color-interpolation-filters="sRGB">
<feFlood flood-opacity="0" result="BackgroundImageFix"/>
<feBlend mode="normal" in="SourceGraphic" in2="BackgroundImageFix" result="shape"/>
<feGaussianBlur stdDeviation="400" result="effect1_foregroundBlur_15_61"/>
</filter>
<filter id="filter2_f_15_61" x="928.3" y="362.284" width="3290.81" height="3453.68" filterUnits="userSpaceOnUse" color-interpolation-filters="sRGB">
<feFlood flood-opacity="0" result="BackgroundImageFix"/>
<feBlend mode="normal" in="SourceGraphic" in2="BackgroundImageFix" result="shape"/>
<feGaussianBlur stdDeviation="306.308" result="effect1_foregroundBlur_15_61"/>
</filter>
<clipPath id="clip0_15_61">
<rect width="2168" height="2168" fill="white"/>
</clipPath>
<clipPath id="clip1_15_61">
<rect width="374" height="374" fill="white" transform="translate(223 221)"/>
</clipPath>
</defs>
</svg>
